# Blender v2.66 (sub 1) OBJ File: 'ArmR.blend'
# www.blender.org
o ArmR_Cube.008
v 0.002652 -0.123597 -0.010124
v -0.002217 -0.126965 0.046465
v 0.021865 0.097902 0.035348
v 0.014055 0.099114 -0.034327
v -0.027034 -0.122195 -0.012670
v -0.028131 -0.124942 0.039298
v -0.039938 0.095217 0.019517
v -0.034136 0.099595 -0.038094
v -0.016006 -0.130008 0.048028
v -0.013125 -0.126161 -0.015622
v -0.010276 0.094144 0.036139
v -0.007109 0.103787 -0.042814
v 0.003454 -0.127526 0.019209
v 0.029634 0.102966 0.000766
v -0.028662 -0.125855 0.014163
v -0.041436 0.101980 -0.009286
v -0.014680 -0.130224 0.016760
v -0.000482 -0.100334 0.043571
v 0.003166 -0.097605 -0.009450
v -0.026498 -0.098328 0.036397
v -0.025085 -0.095942 -0.011784
v -0.014269 -0.102876 0.044997
v -0.011559 -0.099188 -0.014683
v 0.004838 -0.100588 0.017941
v -0.027052 -0.098624 0.013043
v 0.025484 0.043652 0.051574
v 0.018976 0.045897 -0.038579
v -0.046603 0.041696 0.032917
v -0.040222 0.047006 -0.043253
v -0.012102 0.038909 0.052906
v -0.007891 0.050017 -0.049101
v 0.035314 0.048664 0.007085
v -0.048321 0.048406 -0.004889
v -0.008692 0.098966 -0.003337
vn 0.197563 -0.973791 -0.112694
vn 0.217257 -0.975984 0.015945
vn -0.273069 -0.952804 -0.132658
vn -0.410702 -0.910812 0.041783
vn 0.083683 0.102279 0.991230
vn -0.538381 0.127523 0.832997
vn -0.198885 0.045630 -0.978960
vn 0.333081 0.017836 -0.942729
vn 0.998009 -0.052890 -0.034360
vn 0.978238 -0.040677 0.203458
vn -0.995877 0.075626 -0.050093
vn -0.998033 0.059779 0.018885
vn 0.043316 -0.063229 0.997059
vn -0.010462 0.290766 0.956737
vn -0.503342 -0.040452 0.863140
vn -0.463016 0.271430 0.843767
vn -0.153936 -0.218498 -0.963620
vn -0.188490 0.117467 -0.975025
vn 0.326269 -0.220080 -0.919300
vn 0.389481 0.101369 -0.915439
vn 0.931324 -0.168175 -0.323037
vn 0.911002 0.047625 -0.409643
vn 0.964120 -0.182873 0.192431
vn 0.963460 0.128152 0.235204
vn -0.971937 0.107745 -0.209116
vn -0.987929 -0.124811 -0.091755
vn -0.988789 0.132690 0.068476
vn -0.989815 -0.140103 0.025256
vn -0.095167 0.967987 0.232259
vn -0.173325 0.976925 -0.124801
vn -0.112403 0.986488 0.119191
vn 0.165435 0.978126 0.126101
vn 0.163692 -0.977180 -0.135365
vn 0.140448 -0.988846 0.049581
vn -0.299920 -0.942606 -0.146769
vn -0.297211 -0.954793 -0.006022
vn 0.089101 0.104944 0.990479
vn -0.545190 0.123843 0.829114
vn -0.194434 0.047494 -0.979765
vn 0.327037 0.013910 -0.944909
vn 0.997858 -0.018106 -0.062865
vn 0.978017 -0.041511 0.204353
vn -0.995776 0.055871 -0.072855
vn -0.997706 0.063725 0.022854
vn 0.113130 -0.057060 0.991940
vn -0.002184 0.286407 0.958106
vn -0.590035 -0.064718 0.804780
vn -0.466461 0.269053 0.842630
vn -0.257066 -0.233656 -0.937722
vn -0.187277 0.116762 -0.975343
vn 0.347601 -0.223153 -0.910701
vn 0.376873 0.108349 -0.919906
vn 0.975310 -0.205108 -0.081855
vn 0.933259 0.113519 -0.340794
vn 0.961922 -0.184673 0.201498
vn 0.964580 0.132556 0.228065
vn -0.957666 0.135719 -0.253881
vn -0.966388 -0.163946 -0.198032
vn -0.985904 0.144066 0.085079
vn -0.989723 -0.141615 0.019832
vn 0.068671 0.989946 0.123661
vn 0.068671 0.989945 0.123662
vn -0.115366 0.986543 0.115861
vn -0.096565 0.993126 -0.066148
s off
f 10//1 1//1 17//1
f 2//2 9//2 17//2
f 17//3 15//3 10//3
f 9//4 6//4 15//4
f 18//5 22//5 2//5
f 22//6 20//6 9//6
f 21//7 23//7 10//7
f 23//8 19//8 1//8
f 13//9 1//9 24//9
f 24//10 18//10 13//10
f 5//11 15//11 21//11
f 15//12 6//12 25//12
f 26//13 30//13 18//13
f 3//14 11//14 30//14
f 30//15 28//15 22//15
f 11//16 7//16 30//16
f 29//17 31//17 23//17
f 8//18 12//18 29//18
f 31//19 27//19 23//19
f 12//20 4//20 31//20
f 27//21 32//21 19//21
f 4//22 14//22 32//22
f 32//23 26//23 24//23
f 14//24 3//24 32//24
f 29//25 33//25 16//25
f 21//26 25//26 29//26
f 33//27 28//27 16//27
f 25//28 20//28 33//28
f 7//29 11//29 16//29
f 8//30 16//30 12//30
f 3//31 14//31 11//31
f 4//32 12//32 34//32
f 1//33 13//33 17//33
f 13//34 2//34 17//34
f 15//35 5//35 10//35
f 17//36 9//36 15//36
f 22//37 9//37 2//37
f 20//38 6//38 9//38
f 5//39 21//39 10//39
f 10//40 23//40 1//40
f 1//41 19//41 24//41
f 18//42 2//42 13//42
f 15//43 25//43 21//43
f 6//44 20//44 25//44
f 30//45 22//45 18//45
f 26//46 3//46 30//46
f 28//47 20//47 22//47
f 7//48 28//48 30//48
f 21//49 29//49 23//49
f 12//50 31//50 29//50
f 27//51 19//51 23//51
f 4//52 27//52 31//52
f 32//53 24//53 19//53
f 27//54 4//54 32//54
f 26//55 18//55 24//55
f 3//56 26//56 32//56
f 8//57 29//57 16//57
f 25//58 33//58 29//58
f 28//59 7//59 16//59
f 20//60 28//60 33//60
f 11//61 34//61 16//61
f 16//62 34//62 12//62
f 14//63 34//63 11//63
f 14//64 4//64 34//64
