# Blender v2.66 (sub 1) OBJ File: 'FootL.blend'
# www.blender.org
o FootL_Cube.017
v 0.029157 -0.015994 -0.095076
v 0.053555 -0.018204 0.021584
v -0.052957 -0.020653 0.022926
v -0.056107 -0.015994 -0.094403
v 0.010338 0.035401 -0.098846
v 0.029042 0.027196 0.000606
v -0.044129 0.035182 -0.003574
v -0.048354 0.045656 -0.101468
v 0.051714 0.016762 0.026367
v 0.029157 0.015053 -0.109412
v -0.052957 0.018315 0.026367
v -0.056107 0.015053 -0.108739
v -0.043824 -0.009321 0.098490
v 0.056107 -0.010719 0.104064
v -0.043824 -0.023126 0.095049
v 0.056107 -0.024524 0.100624
v -0.004912 -0.020653 0.022926
v -0.033587 -0.020653 0.022926
v -0.002500 -0.015994 -0.109744
v -0.033587 -0.015994 -0.109744
v 0.001683 0.040490 -0.007490
v -0.026993 0.040490 -0.007490
v -0.004912 0.049807 -0.118002
v -0.033587 0.049807 -0.118002
v 0.009702 0.018315 0.026617
v -0.033587 0.018315 0.026367
v -0.002500 0.015053 -0.124080
v -0.033587 0.015053 -0.124080
v -0.033587 -0.009321 0.123830
v 0.009702 -0.009321 0.124080
v -0.033587 -0.023126 0.120389
v 0.009702 -0.023126 0.120640
v 0.037290 -0.016730 -0.056190
v 0.045422 -0.017467 -0.017303
v -0.054007 -0.019100 -0.016183
v -0.055057 -0.017547 -0.055293
v 0.016572 0.035772 -0.065377
v 0.022807 0.036142 -0.031908
v -0.045537 0.047602 -0.026492
v -0.046946 0.045271 -0.068518
v 0.044195 0.016192 -0.018893
v 0.036676 0.015623 -0.064152
v -0.054007 0.017228 -0.018668
v -0.055057 0.016140 -0.063704
v -0.033587 -0.019100 -0.021297
v -0.033587 -0.017547 -0.065521
v -0.004108 -0.019100 -0.021297
v -0.003304 -0.017547 -0.065521
v -0.000515 0.052524 -0.034614
v -0.002714 0.049807 -0.080846
v -0.029191 0.052524 -0.034614
v -0.031389 0.049807 -0.080846
vn -0.992065 -0.011057 0.125239
vn 0.997695 0.057471 -0.036089
vn 0.263692 0.835870 0.481444
vn -0.000000 0.838384 0.545081
vn -0.170641 0.879147 0.444951
vn -0.526007 -0.356537 -0.772139
vn 0.000000 -0.419217 -0.907886
vn 0.387754 -0.386419 -0.836855
vn -0.744157 0.326939 -0.582530
vn 0.000000 0.172283 -0.985047
vn 0.825856 0.152265 -0.542934
vn 0.036826 0.942780 0.331376
vn -0.001578 0.962069 0.272803
vn -0.000000 0.933792 0.357815
vn 0.000000 -0.999678 -0.025366
vn -0.000000 -0.999680 -0.025301
vn 0.039866 -0.995923 -0.080925
vn 0.380345 -0.223646 0.897396
vn -0.005613 -0.241816 0.970306
vn -0.923187 -0.092943 0.372943
vn 0.983851 -0.075035 -0.162500
vn 0.986295 -0.021552 -0.163579
vn 0.983604 0.074273 -0.164339
vn 0.705240 0.695195 -0.139073
vn 0.705240 0.695195 -0.139072
vn 0.652625 0.753220 0.082103
vn -0.999728 0.001592 0.023274
vn -0.999715 0.005785 0.023173
vn -0.921231 0.315497 0.227587
vn -0.961964 0.272641 0.017112
vn -0.970878 0.235450 0.044256
vn -0.016719 -0.999244 -0.035097
vn -0.008790 -0.999345 -0.035101
vn 0.000000 -0.999384 -0.035102
vn 0.025689 -0.999374 -0.024308
vn 0.035056 -0.999040 -0.026261
vn 0.041212 -0.998771 -0.027543
vn 0.713609 0.699271 -0.042219
vn 0.625566 0.776521 -0.075387
vn 0.522068 0.794501 0.310182
vn 0.000000 1.000000 0.000000
vn 0.000000 0.998277 -0.058676
vn -0.000000 0.914076 0.405543
vn -0.247686 0.968592 0.021930
vn -0.310431 0.949655 -0.042282
vn -0.027138 0.878173 0.477572
vn -0.992980 -0.028603 0.114773
vn 0.999468 0.007886 -0.031644
vn 0.036709 0.937060 0.347234
vn -0.003167 0.836819 0.547470
vn -0.000000 0.836541 0.547905
vn -0.526007 -0.356536 -0.772139
vn -0.557216 0.143059 -0.817952
vn 0.318754 0.652024 -0.687939
vn 0.145098 0.951889 0.269916
vn -0.559643 0.797300 0.226081
vn 0.122546 -0.991227 -0.049505
vn 0.000147 -0.999678 -0.025366
vn -0.038515 -0.999067 -0.019525
vn 0.380345 -0.223647 0.897396
vn -0.923187 -0.092944 0.372944
vn 0.978202 -0.031945 -0.205183
vn 0.978590 0.026042 -0.204165
vn 0.695399 0.707769 -0.124433
vn 0.716968 0.685304 -0.127734
vn 0.502657 0.859325 -0.094321
vn -0.999639 -0.002362 0.026749
vn -0.999610 0.006768 0.027110
vn -0.999546 0.012624 0.027341
vn -0.879296 0.476191 0.009008
vn -0.962546 0.270653 0.015911
vn -0.026541 -0.998888 -0.038959
vn -0.018663 -0.999058 -0.039178
vn 0.000000 -0.999212 -0.039685
vn 0.016127 -0.999264 -0.034805
vn 0.028043 -0.999008 -0.034579
vn 0.035706 -0.998769 -0.034432
vn 0.649157 0.749597 -0.129228
vn 0.579891 0.806256 -0.116951
vn 0.388058 0.904948 0.174584
vn -0.268295 0.963206 0.015873
vn -0.306844 0.950863 -0.041300
vn -0.182715 0.893114 0.411050
s off
f 11//1 3//1 15//1
f 2//2 9//2 14//2
f 6//3 21//3 25//3
f 21//4 22//4 25//4
f 22//5 7//5 11//5
f 12//6 28//6 4//6
f 28//7 27//7 19//7
f 27//8 10//8 19//8
f 8//9 24//9 12//9
f 24//10 23//10 28//10
f 23//11 5//11 27//11
f 9//12 25//12 14//12
f 25//13 26//13 30//13
f 26//14 11//14 13//14
f 3//15 18//15 31//15
f 18//16 17//16 32//16
f 17//17 2//17 16//17
f 14//18 30//18 32//18
f 30//19 29//19 31//19
f 29//20 13//20 15//20
f 10//21 42//21 1//21
f 42//22 41//22 33//22
f 41//23 9//23 2//23
f 5//24 37//24 42//24
f 37//25 38//25 42//25
f 38//26 6//26 41//26
f 11//27 43//27 35//27
f 43//27 44//27 35//27
f 44//28 12//28 36//28
f 7//29 39//29 43//29
f 39//30 40//30 43//30
f 40//31 8//31 12//31
f 20//32 46//32 36//32
f 46//33 45//33 35//33
f 45//33 18//33 35//33
f 19//34 48//34 46//34
f 48//34 47//34 46//34
f 47//34 17//34 18//34
f 1//35 33//35 48//35
f 33//36 34//36 47//36
f 34//37 2//37 17//37
f 23//38 50//38 5//38
f 50//39 49//39 37//39
f 49//40 21//40 38//40
f 24//41 52//41 23//41
f 52//42 51//42 50//42
f 51//43 22//43 21//43
f 8//44 40//44 24//44
f 40//45 39//45 52//45
f 39//46 7//46 51//46
f 13//47 11//47 15//47
f 16//48 2//48 14//48
f 9//49 6//49 25//49
f 22//50 26//50 25//50
f 26//51 22//51 11//51
f 28//52 20//52 4//52
f 20//7 28//7 19//7
f 10//8 1//8 19//8
f 24//53 28//53 12//53
f 23//10 27//10 28//10
f 5//54 10//54 27//54
f 25//55 30//55 14//55
f 26//13 29//13 30//13
f 29//56 26//56 13//56
f 15//57 3//57 31//57
f 31//58 18//58 32//58
f 32//59 17//59 16//59
f 16//60 14//60 32//60
f 32//19 30//19 31//19
f 31//61 29//61 15//61
f 42//62 33//62 1//62
f 41//63 34//63 33//63
f 34//63 41//63 2//63
f 10//64 5//64 42//64
f 38//65 41//65 42//65
f 6//66 9//66 41//66
f 3//67 11//67 35//67
f 44//68 36//68 35//68
f 12//69 4//69 36//69
f 11//70 7//70 43//70
f 40//71 44//71 43//71
f 44//71 40//71 12//71
f 4//72 20//72 36//72
f 36//73 46//73 35//73
f 18//74 3//74 35//74
f 20//34 19//34 46//34
f 47//34 45//34 46//34
f 45//34 47//34 18//34
f 19//75 1//75 48//75
f 48//76 33//76 47//76
f 47//77 34//77 17//77
f 50//78 37//78 5//78
f 49//79 38//79 37//79
f 21//80 6//80 38//80
f 52//41 50//41 23//41
f 51//42 49//42 50//42
f 49//43 51//43 21//43
f 40//81 52//81 24//81
f 39//82 51//82 52//82
f 7//83 22//83 51//83
