# Blender v2.66 (sub 1) OBJ File: 'LegL.blend'
# www.blender.org
o LegL_Cube.013
v 0.068009 -0.003370 -0.070916
v 0.077611 -0.010698 0.072786
v -0.050122 -0.021161 0.059521
v -0.057743 -0.015673 -0.048472
v 0.062411 0.252532 -0.080032
v 0.054768 0.247838 0.066769
v -0.076577 0.196755 0.052985
v -0.078159 0.198486 -0.063162
v 0.090059 -0.006391 0.004425
v -0.064478 -0.018879 0.004650
v 0.072262 0.258470 -0.007623
v -0.090059 0.192723 -0.004669
v 0.022574 -0.017031 0.081409
v 0.022574 -0.008080 -0.083672
v 0.005072 0.231345 0.077845
v 0.014886 0.234844 -0.093103
v 0.016028 -0.205325 -0.052432
v 0.015391 -0.216073 0.057214
v -0.038496 -0.208600 0.005944
v 0.065398 -0.209379 0.006239
v -0.032498 -0.205339 -0.029314
v -0.026359 -0.212594 0.042442
v 0.054427 -0.213465 0.051598
v 0.046722 -0.203825 -0.043884
v 0.015710 -0.210699 0.002391
v 0.018199 0.230399 -0.009296
vn 0.990546 0.016821 -0.136145
vn 0.968164 0.075904 0.238532
vn -0.966056 -0.110274 0.233616
vn -0.969555 -0.126446 -0.209702
vn 0.204445 0.040827 0.978026
vn -0.288807 -0.006347 0.957366
vn -0.272387 -0.091669 -0.957811
vn 0.274823 -0.028223 -0.961081
vn -0.385861 -0.143411 -0.911342
vn 0.282029 -0.157574 -0.946377
vn -0.281175 -0.105795 0.953807
vn 0.167266 -0.121365 0.978413
vn -0.959198 -0.140935 0.245105
vn -0.981874 -0.135372 -0.132660
vn 0.978304 -0.117328 0.170748
vn 0.948913 -0.138970 -0.283287
vn -0.050270 -0.994477 -0.092131
vn -0.044909 -0.994200 -0.097725
vn 0.075444 -0.992435 -0.096852
vn 0.052448 -0.993889 -0.097129
vn -0.341232 0.939480 -0.030614
vn -0.301218 0.951329 0.065122
vn -0.397322 0.917229 0.028757
vn -0.358580 0.933306 0.019007
vn 0.959013 0.051767 -0.278595
vn 0.978739 0.090760 0.183937
vn -0.963099 -0.105526 0.247598
vn -0.985987 -0.102998 -0.131228
vn 0.151952 0.024885 0.988074
vn -0.287962 -0.006550 0.957620
vn -0.397128 -0.048145 -0.916500
vn 0.272943 -0.028691 -0.961602
vn -0.426532 -0.127667 -0.895417
vn 0.272062 -0.159336 -0.948997
vn -0.340205 -0.125377 0.931955
vn 0.149463 -0.124626 0.980882
vn -0.945267 -0.127406 0.300396
vn -0.972695 -0.147565 -0.179134
vn 0.965941 -0.133602 0.221603
vn 0.926503 -0.115761 -0.358039
vn -0.044910 -0.994200 -0.097725
vn -0.047339 -0.993863 -0.099975
vn 0.035882 -0.991725 -0.123260
vn 0.032787 -0.996111 -0.081784
vn -0.461415 0.884787 0.065173
vn -0.457470 0.885751 -0.078526
vn -0.330377 0.941941 -0.059991
vn -0.325632 0.943401 0.062915
s off
f 5//1 11//1 1//1
f 11//2 6//2 9//2
f 7//3 12//3 3//3
f 12//4 8//4 10//4
f 6//5 15//5 2//5
f 15//6 7//6 3//6
f 8//7 16//7 4//7
f 16//8 5//8 1//8
f 4//9 14//9 21//9
f 14//10 1//10 24//10
f 13//11 3//11 18//11
f 2//12 13//12 23//12
f 3//13 10//13 22//13
f 10//14 4//14 19//14
f 9//15 2//15 20//15
f 1//16 9//16 24//16
f 18//17 22//17 19//17
f 17//18 25//18 19//18
f 17//19 24//19 25//19
f 18//20 25//20 23//20
f 5//21 16//21 11//21
f 6//22 11//22 15//22
f 7//23 15//23 12//23
f 8//24 12//24 16//24
f 11//25 9//25 1//25
f 6//26 2//26 9//26
f 12//27 10//27 3//27
f 8//28 4//28 10//28
f 15//29 13//29 2//29
f 13//30 15//30 3//30
f 16//31 14//31 4//31
f 14//32 16//32 1//32
f 14//33 17//33 21//33
f 17//34 14//34 24//34
f 3//35 22//35 18//35
f 13//36 18//36 23//36
f 10//37 19//37 22//37
f 4//38 21//38 19//38
f 2//39 23//39 20//39
f 9//40 20//40 24//40
f 25//41 18//41 19//41
f 21//42 17//42 19//42
f 24//43 20//43 25//43
f 25//44 20//44 23//44
f 16//45 26//45 11//45
f 11//46 26//46 15//46
f 15//47 26//47 12//47
f 12//48 26//48 16//48
