# Blender v2.66 (sub 1) OBJ File: 'Torax.blend'
# www.blender.org
o Torax_Cube.002
v 0.000000 0.004801 -0.161265
v 0.000000 -0.089565 -0.119026
v -0.000000 -0.000345 0.109796
v -0.000000 -0.036804 0.099965
v 0.000000 0.179046 -0.043460
v 0.000000 0.173020 -0.160412
v -0.000000 0.143795 0.045624
v -0.000000 -0.178195 0.133265
v 0.000000 -0.179046 -0.095763
v -0.000000 -0.179046 -0.004036
v 0.184678 0.008942 -0.026702
v -0.184678 0.008942 -0.026703
v 0.168620 -0.078350 -0.019349
v -0.168620 -0.078350 -0.019350
v 0.149150 0.005030 -0.150511
v -0.149150 0.005030 -0.150511
v 0.133000 -0.086770 -0.107689
v -0.133000 -0.086770 -0.107689
v 0.149150 0.000540 0.090876
v -0.149150 0.000540 0.090876
v 0.134101 -0.036381 0.080019
v -0.134101 -0.036381 0.080019
v 0.160368 0.167993 -0.045985
v -0.160368 0.167993 -0.045985
v 0.146663 0.147620 0.032506
v -0.146663 0.147620 0.032506
v 0.137790 0.158357 -0.159161
v -0.137790 0.158357 -0.159161
v 0.101064 -0.179046 -0.085009
v -0.101064 -0.179046 -0.085009
v 0.101064 -0.178195 0.114345
v -0.101064 -0.178195 0.114345
v 0.129301 -0.179046 -0.004036
v -0.129301 -0.179046 -0.004036
vn 0.977828 0.061149 -0.200281
vn -0.971076 0.123655 -0.204256
vn 0.946047 0.133223 0.295377
vn -0.938122 0.179301 0.296275
vn 0.009618 0.005073 -0.999941
vn -0.003094 -0.056095 -0.998421
vn 0.065544 -0.431282 -0.899833
vn -0.085579 -0.433519 -0.897072
vn 0.087423 -0.266192 -0.959947
vn -0.101865 -0.270541 -0.957304
vn 0.112751 0.404129 0.907726
vn -0.114860 0.368108 0.922661
vn 0.142947 -0.257689 0.955595
vn -0.139830 -0.331392 0.933074
vn 0.179273 0.225533 0.957599
vn -0.180611 0.191443 0.964743
vn 0.066896 0.992947 -0.097883
vn -0.106175 0.988750 -0.105361
vn -0.002816 0.968042 0.250771
vn -0.070462 0.962460 0.262118
vn 0.000001 -1.000000 0.000000
vn -0.000002 -1.000000 -0.000002
vn 0.001160 -0.999980 0.006194
vn -0.000000 -0.999981 0.006194
vn 0.916391 -0.136889 0.376151
vn -0.949170 -0.151357 0.275983
vn 0.958664 -0.167694 0.229875
vn -0.919292 -0.325254 0.221615
vn 0.915496 -0.197915 -0.350281
vn -0.891448 -0.310692 -0.329836
vn 0.870947 -0.386267 -0.303725
vn -0.874349 -0.377549 -0.304911
vn 0.954192 0.112212 -0.277354
vn -0.959264 0.055445 -0.277017
vn 0.961703 0.172782 0.212776
vn -0.976336 0.093837 0.194840
vn 0.071900 -0.050867 -0.996114
vn -0.071906 0.005060 -0.997399
vn 0.086070 -0.407037 -0.909347
vn -0.066293 -0.407654 -0.910727
vn 0.102444 -0.250287 -0.962736
vn -0.087451 -0.250647 -0.964121
vn 0.073251 0.368951 0.926558
vn -0.070924 0.405698 0.911251
vn 0.120906 -0.325103 0.937918
vn -0.123080 -0.258383 0.958170
vn 0.143495 0.201120 0.968999
vn -0.142585 0.226905 0.963423
vn 0.106139 0.993034 -0.051163
vn -0.067865 0.996373 -0.051335
vn 0.069710 0.927586 0.367049
vn -0.008660 0.929813 0.367930
vn -0.000000 -1.000000 -0.000002
vn 0.000000 -1.000000 0.000000
vn 0.000000 -0.999974 0.007184
vn -0.001408 -0.999971 0.007520
vn 0.874394 -0.425162 0.233822
vn -0.769077 -0.447639 0.456224
vn 0.866335 -0.274858 0.417034
vn -0.919871 -0.124249 0.372020
vn 0.924461 -0.282226 -0.256360
vn -0.944191 -0.195988 -0.264747
vn 0.870356 -0.378612 -0.314856
vn -0.867606 -0.386374 -0.313009
s off
f 27//1 23//1 15//1
f 12//2 24//2 28//2
f 25//3 19//3 11//3
f 12//4 20//4 24//4
f 1//5 6//5 27//5
f 28//6 6//6 16//6
f 15//7 17//7 1//7
f 2//8 18//8 16//8
f 17//9 29//9 2//9
f 9//10 30//10 18//10
f 7//11 3//11 19//11
f 20//12 3//12 26//12
f 3//13 4//13 21//13
f 22//14 4//14 20//14
f 4//15 8//15 31//15
f 32//16 8//16 22//16
f 23//17 27//17 5//17
f 6//18 28//18 24//18
f 25//19 23//19 7//19
f 5//20 24//20 26//20
f 10//21 9//21 29//21
f 30//22 9//22 34//22
f 8//23 10//23 31//23
f 34//24 10//24 8//24
f 21//25 13//25 11//25
f 12//26 14//26 20//26
f 31//27 33//27 21//27
f 14//28 34//28 32//28
f 13//29 17//29 11//29
f 16//30 18//30 14//30
f 33//31 29//31 13//31
f 18//32 30//32 34//32
f 23//33 11//33 15//33
f 16//34 12//34 28//34
f 23//35 25//35 11//35
f 20//36 26//36 24//36
f 15//37 1//37 27//37
f 6//38 1//38 16//38
f 17//39 2//39 1//39
f 1//40 2//40 16//40
f 29//41 9//41 2//41
f 2//42 9//42 18//42
f 25//43 7//43 19//43
f 3//44 7//44 26//44
f 19//45 3//45 21//45
f 4//46 3//46 20//46
f 21//47 4//47 31//47
f 8//48 4//48 22//48
f 27//49 6//49 5//49
f 5//50 6//50 24//50
f 23//51 5//51 7//51
f 7//52 5//52 26//52
f 33//53 10//53 29//53
f 9//54 10//54 34//54
f 10//55 33//55 31//55
f 32//56 34//56 8//56
f 19//57 21//57 11//57
f 14//58 22//58 20//58
f 33//59 13//59 21//59
f 22//60 14//60 32//60
f 17//61 15//61 11//61
f 12//62 16//62 14//62
f 29//63 17//63 13//63
f 14//64 18//64 34//64
