# Blender v2.66 (sub 1) OBJ File: 'ShinR.blend'
# www.blender.org
o ShinR_Cube.014
v -0.046582 0.234506 -0.034635
v -0.053931 0.242034 0.050867
v 0.017902 0.236288 0.043280
v 0.023735 0.230617 -0.020974
v -0.063457 0.239006 0.010155
v 0.028890 0.233066 0.010656
v -0.019339 0.238517 0.056269
v -0.019339 0.230228 -0.041978
v -0.005390 -0.261021 -0.028588
v -0.005390 -0.255703 0.034441
v 0.025169 -0.259188 0.005177
v -0.033344 -0.255424 0.004860
v 0.021903 -0.260760 -0.015114
v 0.018207 -0.257125 0.026107
v -0.027308 -0.253478 0.030978
v -0.022652 -0.258305 -0.023875
v -0.012923 -0.040128 -0.070560
v -0.020134 0.132910 -0.060857
v 0.030776 -0.039238 -0.043384
v 0.035061 0.133221 -0.036171
v -0.040561 -0.035607 -0.060962
v -0.055043 0.138323 -0.052264
v -0.012923 -0.029390 0.056710
v -0.020134 0.142648 0.054554
v 0.027587 0.139909 0.039306
v 0.024859 -0.031962 0.039858
v -0.064459 0.147199 0.048173
v -0.048016 -0.025943 0.049806
v 0.036005 -0.036005 -0.002415
v 0.041666 0.136074 0.000987
v -0.076666 0.143686 0.000344
v -0.057680 -0.029979 -0.002923
v -0.019339 0.234372 0.007146
v -0.005390 -0.258362 0.002926
vn 0.401439 0.171265 -0.899731
vn 0.525817 0.069451 -0.847758
vn 0.439872 -0.130998 -0.888455
vn -0.206036 0.193921 -0.959137
vn -0.325058 0.020216 -0.945478
vn -0.285337 -0.179725 -0.941426
vn 0.303891 -0.008747 0.952667
vn 0.407162 -0.003532 0.913349
vn 0.328647 -0.067239 0.942056
vn -0.143706 -0.012161 0.989546
vn -0.193900 -0.009159 0.980978
vn -0.164858 -0.096231 0.981612
vn 0.937718 0.090077 0.335515
vn 0.965418 -0.036864 0.258086
vn 0.947257 -0.035156 0.318541
vn 0.972685 0.141792 -0.183789
vn 0.991956 -0.019419 -0.125082
vn 0.986272 -0.059177 -0.154159
vn -0.965783 0.100428 0.239119
vn -0.978260 -0.091150 0.186277
vn -0.966928 -0.107152 0.231449
vn -0.906091 0.165634 -0.389314
vn -0.956962 -0.099493 -0.272627
vn -0.934900 -0.112541 -0.336595
vn 0.032991 0.996047 -0.082478
vn 0.132633 0.987656 -0.083329
vn 0.097446 0.990554 -0.096474
vn 0.030316 0.996002 -0.084033
vn -0.028678 -0.995653 0.088610
vn -0.033099 -0.995914 0.084026
vn -0.098431 -0.991621 0.083663
vn -0.143004 -0.988656 0.045916
vn 0.429127 0.187764 -0.883513
vn 0.407983 0.028026 -0.912559
vn 0.524871 -0.141581 -0.839325
vn -0.228139 0.187217 -0.955459
vn -0.232233 0.044806 -0.971628
vn -0.349400 -0.186392 -0.918247
vn 0.328204 -0.019618 0.944403
vn 0.305553 0.024740 0.951854
vn 0.401830 -0.076418 0.912520
vn -0.155898 -0.016378 0.987637
vn -0.141839 0.006464 0.989869
vn -0.201714 -0.102563 0.974060
vn 0.946911 0.082339 0.310771
vn 0.938114 -0.013784 0.346053
vn 0.964948 -0.044302 0.258673
vn 0.974651 0.145348 -0.170086
vn 0.984533 -0.028976 -0.172784
vn 0.991105 -0.052284 -0.122380
vn -0.969402 0.111848 0.218518
vn -0.961112 -0.109844 0.253374
vn -0.977405 -0.099062 0.186726
vn -0.920612 0.147266 -0.361645
vn -0.925419 -0.058331 -0.374430
vn -0.955149 -0.121764 -0.269933
vn 0.031971 0.995950 -0.084028
vn 0.100055 0.993044 -0.062068
vn 0.113689 0.989999 -0.083526
vn 0.033317 0.995642 -0.087107
vn -0.033099 -0.995914 0.084025
vn -0.031068 -0.996132 0.082200
vn -0.116175 -0.988135 0.100464
vn -0.098431 -0.991621 0.083664
s off
f 20//1 18//1 8//1
f 19//2 17//2 18//2
f 13//3 9//3 19//3
f 22//4 1//4 18//4
f 21//5 22//5 17//5
f 16//6 21//6 9//6
f 25//7 3//7 24//7
f 26//8 25//8 23//8
f 14//9 26//9 10//9
f 27//10 24//10 2//10
f 28//11 23//11 27//11
f 15//12 10//12 28//12
f 25//13 30//13 6//13
f 26//14 29//14 30//14
f 14//15 11//15 29//15
f 20//16 4//16 30//16
f 19//17 20//17 29//17
f 13//18 19//18 11//18
f 27//19 2//19 31//19
f 28//20 27//20 32//20
f 15//21 28//21 12//21
f 22//22 31//22 5//22
f 21//23 32//23 31//23
f 16//24 12//24 32//24
f 33//25 6//25 4//25
f 33//26 8//26 1//26
f 33//27 5//27 2//27
f 33//28 7//28 3//28
f 11//29 14//29 10//29
f 11//30 34//30 9//30
f 12//31 34//31 10//31
f 12//32 16//32 9//32
f 4//33 20//33 8//33
f 20//34 19//34 18//34
f 9//35 17//35 19//35
f 1//36 8//36 18//36
f 22//37 18//37 17//37
f 21//38 17//38 9//38
f 3//39 7//39 24//39
f 25//40 24//40 23//40
f 26//41 23//41 10//41
f 24//42 7//42 2//42
f 23//43 24//43 27//43
f 10//44 23//44 28//44
f 3//45 25//45 6//45
f 25//46 26//46 30//46
f 26//47 14//47 29//47
f 4//48 6//48 30//48
f 20//49 30//49 29//49
f 19//50 29//50 11//50
f 2//51 5//51 31//51
f 27//52 31//52 32//52
f 28//53 32//53 12//53
f 1//54 22//54 5//54
f 22//55 21//55 31//55
f 21//56 16//56 32//56
f 8//57 33//57 4//57
f 5//58 33//58 1//58
f 7//59 33//59 2//59
f 6//60 33//60 3//60
f 34//61 11//61 10//61
f 13//62 11//62 9//62
f 15//63 12//63 10//63
f 34//64 12//64 9//64
