# Blender v2.66 (sub 1) OBJ File: 'ShoulderL.blend'
# www.blender.org
o ShoulderL_Cube.003
v -0.032512 -0.194436 -0.040591
v -0.024716 -0.184434 0.039759
v -0.034440 -0.015845 0.051052
v -0.060246 -0.027425 -0.034452
v 0.006774 -0.172845 -0.051187
v 0.023949 -0.157939 0.012787
v 0.025940 0.003646 0.021009
v 0.009918 -0.008723 -0.062479
v -0.040863 -0.194842 0.006492
v -0.061023 -0.028071 0.010162
v 0.016719 -0.166075 -0.023961
v 0.024035 0.003172 -0.025548
v 0.004019 -0.169416 0.035817
v -0.014982 -0.185097 -0.052110
v -0.010144 -0.009883 0.043159
v -0.036271 -0.022211 -0.057311
v -0.008151 -0.180894 -0.013895
v -0.022600 -0.130274 0.055287
v -0.021277 -0.077528 0.055752
v -0.048403 -0.150315 -0.044885
v -0.055299 -0.101290 -0.044039
v 0.029988 -0.105235 0.019280
v 0.031311 -0.052489 0.019745
v 0.006705 -0.118453 -0.060637
v 0.006895 -0.066368 -0.063596
v -0.052235 -0.149241 0.009306
v -0.059131 -0.100216 0.010152
v 0.021720 -0.111070 -0.025830
v 0.023043 -0.058324 -0.025365
v 0.008353 -0.114052 0.049484
v 0.005935 -0.062704 0.055107
v -0.019870 -0.131100 -0.061459
v -0.018547 -0.078354 -0.060994
v 0.006771 0.106490 -0.077894
v -0.025876 0.106139 -0.073204
v -0.060863 0.092912 -0.036880
v 0.041617 0.112278 0.023439
v 0.004188 0.110822 0.065379
v -0.037615 0.115077 0.069624
v 0.037752 0.121256 -0.025904
v -0.050929 0.095148 0.012557
v -0.022431 0.194290 0.055525
v -0.028194 0.207292 0.000737
v -0.036376 0.197913 -0.038601
v 0.027508 0.154383 -0.027661
v 0.031325 0.155700 0.026959
v 0.002841 0.148257 -0.074003
v 0.009526 0.170035 0.053709
v -0.015522 0.178120 -0.051400
v 0.005893 0.191123 -0.018396
v -0.041210 -0.003374 -0.059314
v -0.010584 0.024636 0.054972
v 0.023708 0.011925 -0.026439
v -0.073603 -0.010855 0.014093
v 0.000392 0.008767 -0.068341
v 0.026314 0.026642 0.020965
v -0.080002 -0.006668 -0.030554
v -0.060424 -0.001972 0.066064
v -0.016468 -0.016205 -0.007482
v -0.012115 0.008895 -0.008560
vn 0.518622 -0.854693 0.023076
vn 0.476076 -0.879328 0.011592
vn 0.548068 -0.834387 0.058486
vn 0.470798 -0.877896 0.087449
vn -0.937313 -0.343376 -0.059471
vn -0.988176 -0.137840 -0.067143
vn -0.997204 -0.026151 -0.069995
vn -0.883113 -0.097076 0.459007
vn -0.843499 0.016422 0.536880
vn -0.738262 -0.106803 0.666005
vn 0.935681 -0.016150 -0.352477
vn 0.922500 -0.019737 -0.385491
vn 0.921207 -0.096561 -0.376901
vn 0.994501 0.096090 -0.041656
vn 0.983879 -0.023112 -0.177334
vn 0.981504 -0.091762 -0.168019
vn 0.303705 -0.250684 0.919196
vn 0.080541 -0.104761 0.991231
vn -0.083434 0.195627 0.977123
vn 0.824004 -0.161329 0.543130
vn 0.815684 -0.025553 0.577934
vn 0.514739 0.029955 0.856823
vn 0.130336 -0.157687 -0.978850
vn -0.107081 0.011452 -0.994184
vn -0.119096 0.027515 -0.992501
vn -0.373525 -0.222183 -0.900619
vn -0.397805 -0.040141 -0.916592
vn -0.694606 0.046652 -0.717876
vn -0.187999 -0.083394 -0.978622
vn -0.594438 -0.018735 -0.803923
vn 0.669752 -0.201104 0.714835
vn 0.256715 -0.079319 0.963227
vn 0.872419 -0.103639 -0.477645
vn 0.991749 -0.127313 -0.014994
vn -0.967933 0.196013 0.157113
vn -0.960286 0.180658 0.212633
vn -0.965550 0.211693 0.151324
vn -0.959547 0.213831 0.183158
vn 0.971868 0.233098 -0.033728
vn 0.835475 0.128382 -0.534321
vn 0.117653 0.181797 0.976272
vn 0.738483 0.121279 0.663275
vn -0.739527 0.161755 -0.653403
vn -0.138602 0.305322 -0.942108
vn 0.851618 0.519192 -0.072024
vn 0.514984 0.829378 0.216618
vn 0.603699 0.682744 -0.411592
vn 0.379430 0.750055 -0.541710
vn -0.348534 0.937284 0.004708
vn -0.270470 0.956409 -0.110125
vn -0.202815 0.979159 0.010644
vn -0.294682 0.936708 -0.189053
vn 0.259661 -0.938800 0.226341
vn 0.475859 -0.879024 0.029571
vn 0.180647 -0.974644 0.132046
vn 0.292199 -0.954269 0.063172
vn 0.490404 -0.871457 0.008165
vn 0.426830 -0.901778 0.067918
vn 0.534238 -0.841427 0.081182
vn 0.429425 -0.900131 0.073208
vn -0.958275 -0.228356 -0.171938
vn -0.988176 -0.137842 -0.067141
vn -0.997753 -0.064439 -0.018329
vn -0.772397 -0.229165 0.592357
vn -0.735459 -0.114973 0.667743
vn -0.835178 -0.021983 0.549541
vn 0.923488 -0.041038 -0.381426
vn 0.919873 -0.025584 -0.391381
vn 0.942233 -0.056185 -0.330214
vn 0.983858 -0.016409 -0.178198
vn 0.980528 -0.094989 -0.171879
vn 0.270348 -0.275077 0.922629
vn 0.191043 -0.013446 0.981490
vn 0.276900 0.131620 0.951842
vn 0.788349 -0.204913 0.580100
vn 0.816128 -0.024800 0.577339
vn 0.708509 0.353802 0.610605
vn 0.111189 -0.169983 -0.979154
vn 0.057887 -0.056840 -0.996704
vn -0.113457 0.025195 -0.993223
vn -0.465570 -0.191741 -0.863991
vn -0.512428 0.020422 -0.858487
vn -0.386190 -0.061540 -0.920364
vn -0.140279 -0.105229 -0.984504
vn -0.734415 0.098489 -0.671517
vn 0.740110 -0.151184 0.655271
vn 0.086611 -0.134040 0.987184
vn 0.867234 -0.109015 -0.485819
vn 0.979184 -0.171862 -0.107990
vn -0.960700 0.208159 0.183646
vn -0.965998 0.208840 0.152424
vn -0.965375 0.212091 0.151881
vn -0.962877 0.226954 0.146149
vn 0.953870 0.291041 -0.073669
vn 0.844609 0.235672 -0.480723
vn 0.163555 0.142403 0.976202
vn 0.787219 0.050162 0.614629
vn -0.261916 0.314105 -0.912545
vn -0.786610 -0.016513 -0.617230
vn 0.681006 0.711368 0.173740
vn 0.604407 0.787092 0.123201
vn 0.613933 0.512568 -0.600300
vn 0.280210 0.918990 -0.277380
vn -0.450736 0.890966 -0.054934
vn -0.287123 0.954268 -0.083267
vn -0.261865 0.965027 -0.012246
vn -0.411303 0.909910 0.053789
vn 0.218078 -0.935378 0.278406
vn 0.369580 -0.903968 0.215064
vn 0.260571 -0.957051 -0.127105
vn 0.095191 -0.995215 0.022043
s off
f 11//1 17//1 5//1
f 1//2 14//2 17//2
f 6//3 13//3 17//3
f 13//4 2//4 17//4
f 20//5 1//5 26//5
f 26//6 27//6 20//6
f 27//7 10//7 21//7
f 2//8 18//8 9//8
f 18//9 19//9 26//9
f 19//10 3//10 27//10
f 12//11 29//11 8//11
f 29//12 28//12 25//12
f 28//13 11//13 24//13
f 7//14 23//14 12//14
f 23//15 22//15 29//15
f 22//16 6//16 28//16
f 13//17 30//17 18//17
f 30//18 31//18 19//18
f 31//19 15//19 19//19
f 6//20 22//20 30//20
f 22//21 23//21 31//21
f 23//22 7//22 15//22
f 14//23 32//23 5//23
f 32//24 33//24 25//24
f 33//25 16//25 8//25
f 1//26 20//26 32//26
f 20//27 21//27 33//27
f 21//28 4//28 16//28
f 55//29 51//29 34//29
f 51//30 57//30 35//30
f 52//31 56//31 38//31
f 58//32 52//32 39//32
f 53//33 55//33 34//33
f 56//34 53//34 40//34
f 57//35 54//35 36//35
f 54//36 58//36 39//36
f 41//37 39//37 43//37
f 36//38 41//38 43//38
f 37//39 40//39 46//39
f 40//40 34//40 47//40
f 39//41 38//41 48//41
f 38//42 37//42 46//42
f 35//43 36//43 44//43
f 34//44 35//44 49//44
f 45//45 50//45 46//45
f 50//46 43//46 48//46
f 47//47 49//47 45//47
f 49//48 44//48 50//48
f 7//49 12//49 15//49
f 3//50 15//50 10//50
f 4//51 10//51 16//51
f 8//52 16//52 12//52
f 52//53 60//53 56//53
f 52//54 58//54 54//54
f 51//55 60//55 57//55
f 51//56 55//56 60//56
f 17//57 14//57 5//57
f 9//58 1//58 17//58
f 11//59 6//59 17//59
f 2//60 9//60 17//60
f 1//61 9//61 26//61
f 27//62 21//62 20//62
f 10//63 4//63 21//63
f 18//64 26//64 9//64
f 19//65 27//65 26//65
f 3//66 10//66 27//66
f 29//67 25//67 8//67
f 28//68 24//68 25//68
f 11//69 5//69 24//69
f 23//70 29//70 12//70
f 22//15 28//15 29//15
f 6//71 11//71 28//71
f 2//72 13//72 18//72
f 18//73 30//73 19//73
f 15//74 3//74 19//74
f 13//75 6//75 30//75
f 30//76 22//76 31//76
f 31//77 23//77 15//77
f 32//78 24//78 5//78
f 24//79 32//79 25//79
f 25//80 33//80 8//80
f 14//81 1//81 32//81
f 32//82 20//82 33//82
f 33//83 21//83 16//83
f 51//84 35//84 34//84
f 57//85 36//85 35//85
f 56//86 37//86 38//86
f 52//87 38//87 39//87
f 40//88 53//88 34//88
f 37//89 56//89 40//89
f 54//90 41//90 36//90
f 41//91 54//91 39//91
f 39//92 42//92 43//92
f 44//93 36//93 43//93
f 40//94 45//94 46//94
f 45//95 40//95 47//95
f 42//96 39//96 48//96
f 48//97 38//97 46//97
f 49//98 35//98 44//98
f 47//99 34//99 49//99
f 50//100 48//100 46//100
f 43//101 42//101 48//101
f 49//102 50//102 45//102
f 44//103 43//103 50//103
f 12//104 59//104 15//104
f 15//105 59//105 10//105
f 10//106 59//106 16//106
f 16//107 59//107 12//107
f 60//108 53//108 56//108
f 60//109 52//109 54//109
f 60//110 54//110 57//110
f 55//111 53//111 60//111
