# Blender v2.66 (sub 1) OBJ File: 'ShoulderR.blend'
# www.blender.org
o ShoulderR_Cube.006
v 0.026519 -0.194556 -0.043798
v 0.018740 -0.184632 0.036548
v 0.028510 -0.015914 0.047998
v 0.054315 -0.027413 -0.037507
v -0.012805 -0.172930 -0.054361
v -0.029976 -0.158080 0.009618
v -0.031934 0.003634 0.017994
v -0.015922 -0.008657 -0.065493
v 0.034891 -0.195015 0.003274
v 0.055106 -0.028109 0.007098
v -0.022751 -0.166183 -0.027132
v -0.030041 0.003210 -0.028555
v -0.010022 -0.169594 0.032628
v 0.008970 -0.185194 -0.055301
v 0.004189 -0.009936 0.040119
v 0.030312 -0.022167 -0.060350
v 0.002143 -0.181029 -0.017088
v 0.016636 -0.130443 0.052125
v 0.015323 -0.077652 0.052641
v 0.042433 -0.150395 -0.048053
v 0.049346 -0.101330 -0.047161
v -0.036009 -0.105338 0.016162
v -0.037322 -0.052547 0.016678
v -0.012728 -0.118482 -0.063757
v -0.012908 -0.066349 -0.066666
v 0.046284 -0.149379 0.006128
v 0.053197 -0.100314 0.007019
v -0.027747 -0.111129 -0.028947
v -0.029060 -0.058338 -0.028431
v -0.014346 -0.114197 0.046347
v -0.011914 -0.062812 0.052018
v 0.013871 -0.131142 -0.064598
v 0.012557 -0.078352 -0.064082
v -0.012753 0.106671 -0.080795
v 0.019928 0.106311 -0.076115
v 0.054957 0.093028 -0.039819
v -0.047605 0.112356 0.020532
v -0.010126 0.110849 0.062453
v 0.031720 0.115099 0.066692
v -0.043747 0.121396 -0.028794
v 0.045027 0.095213 0.009613
v 0.016533 0.194396 0.052675
v 0.022289 0.207468 -0.002091
v 0.030466 0.198123 -0.041433
v -0.033488 0.154552 -0.030521
v -0.037292 0.155810 0.024090
v -0.008810 0.148468 -0.076866
v -0.015461 0.170126 0.050844
v 0.009583 0.178330 -0.054243
v -0.011841 0.191310 -0.021228
v 0.035259 -0.003312 -0.062336
v 0.004640 0.024600 0.051962
v -0.029712 0.011972 -0.029437
v 0.067703 -0.010884 0.011042
v -0.006385 0.008854 -0.071339
v -0.032305 0.026650 0.017973
v 0.074097 -0.006645 -0.033594
v 0.054527 -0.002049 0.063015
v 0.010504 -0.016208 -0.010520
v 0.006151 0.008915 -0.011573
vn -0.512767 -0.858526 0.001967
vn -0.406703 -0.913165 0.026870
vn -0.530235 -0.845379 0.064692
vn -0.467945 -0.882441 0.048219
vn 0.922240 -0.348481 -0.167435
vn 0.988120 -0.137992 -0.067647
vn 0.999487 -0.026406 -0.018135
vn 0.806897 -0.134040 0.575284
vn 0.772512 0.013016 0.634867
vn 0.812828 -0.130939 0.567596
vn -0.922229 -0.015478 -0.386335
vn -0.919482 -0.019039 -0.392671
vn -0.942390 -0.096070 -0.320424
vn -0.976579 0.098144 -0.191471
vn -0.983896 -0.022747 -0.177290
vn -0.980767 -0.090735 -0.172811
vn -0.313083 -0.273582 0.909468
vn -0.028585 -0.010481 0.999536
vn -0.276344 0.130636 0.952139
vn -0.823005 -0.196236 0.533062
vn -0.815135 -0.025289 0.578719
vn -0.406108 0.316582 0.857235
vn -0.106762 -0.159132 -0.981468
vn 0.074968 -0.055292 -0.995652
vn 0.118127 0.026350 -0.992649
vn 0.392850 -0.190365 -0.899683
vn 0.427797 0.019477 -0.903665
vn 0.661808 -0.160491 -0.732293
vn 0.183050 -0.097360 -0.978271
vn 0.597205 0.064748 -0.799471
vn -0.674454 -0.142034 0.724526
vn -0.296622 -0.165190 0.940600
vn -0.867002 -0.103562 -0.487425
vn -0.986949 -0.125998 -0.100282
vn 0.965185 0.208418 0.158049
vn 0.969541 0.183669 0.162037
vn 0.965549 0.211684 0.151346
vn 0.965757 0.211316 0.150530
vn -0.955408 0.294559 -0.020739
vn -0.868513 0.126975 -0.479126
vn -0.186324 0.172656 0.967199
vn -0.802946 0.143175 0.578600
vn 0.455441 0.092534 -0.885444
vn 0.486475 0.317115 -0.814113
vn -0.868202 0.486176 0.099292
vn -0.491600 0.857284 0.152948
vn -0.442851 0.698571 -0.562033
vn -0.553062 0.777405 -0.299605
vn 0.428584 0.903455 0.009202
vn 0.264033 0.960666 -0.086065
vn 0.253890 0.967175 0.010580
vn 0.280806 0.959760 -0.003151
vn -0.196110 -0.953077 0.230618
vn -0.330549 -0.940714 0.076116
vn -0.320554 -0.946203 0.044104
vn -0.264506 -0.961407 -0.075715
vn -0.489160 -0.871399 0.037237
vn -0.510618 -0.855844 0.082467
vn -0.559529 -0.825673 0.072056
vn -0.441388 -0.892040 0.097166
vn 0.969146 -0.237919 -0.064427
vn 0.988120 -0.137994 -0.067649
vn 0.995889 -0.057846 -0.069702
vn 0.841667 -0.240368 0.483550
vn 0.809852 -0.124515 0.573268
vn 0.764114 -0.020903 0.644743
vn -0.937692 -0.041976 -0.344923
vn -0.922742 -0.024647 -0.384630
vn -0.921170 -0.064915 -0.383709
vn -0.999052 -0.016007 -0.040485
vn -0.983896 -0.022746 -0.177291
vn -0.981310 -0.094564 -0.167596
vn -0.258467 -0.251172 0.932796
vn -0.230885 -0.095929 0.968240
vn 0.083599 0.194475 0.977339
vn -0.784407 -0.163938 0.598189
vn -0.815744 -0.025943 0.577831
vn -0.801563 0.062941 0.594588
vn -0.136915 -0.168269 -0.976186
vn -0.027267 0.009092 -0.999587
vn 0.114750 0.029697 -0.992950
vn 0.438611 -0.241463 -0.865631
vn 0.474679 -0.050922 -0.878685
vn 0.459490 0.084590 -0.884146
vn 0.140300 -0.086214 -0.986348
vn 0.722039 0.014036 -0.691710
vn -0.733404 -0.204420 0.648329
vn -0.095634 -0.049823 0.994169
vn -0.871949 -0.109031 -0.477303
vn -0.984433 -0.175759 0.000586
vn 0.962949 0.196447 0.184765
vn 0.956123 0.207142 0.207176
vn 0.965514 0.211415 0.151944
vn 0.956968 0.225814 0.182265
vn -0.969025 0.235943 -0.072952
vn -0.808676 0.221858 -0.544814
vn -0.114825 0.151545 0.981758
vn -0.742856 0.063662 0.666417
vn 0.739427 0.290631 -0.607274
vn 0.142169 0.079337 -0.986658
vn -0.499760 0.864432 -0.054740
vn -0.599584 0.775478 0.197821
vn -0.714688 0.534827 -0.450756
vn -0.162788 0.877696 -0.450721
vn 0.385971 0.920158 -0.065842
vn 0.291301 0.951961 -0.094411
vn 0.234371 0.971874 -0.023058
vn 0.466761 0.878279 -0.103733
vn -0.297007 -0.916628 0.267544
vn -0.495531 -0.845944 0.197050
vn -0.013966 -0.995234 -0.096515
vn -0.155942 -0.976932 0.145895
s off
f 14//1 17//1 11//1
f 17//2 14//2 9//2
f 17//3 13//3 11//3
f 9//4 2//4 13//4
f 9//5 1//5 20//5
f 21//6 27//6 26//6
f 4//7 10//7 27//7
f 26//8 18//8 2//8
f 27//9 19//9 18//9
f 10//10 3//10 19//10
f 25//11 29//11 12//11
f 24//12 28//12 29//12
f 5//13 11//13 28//13
f 29//14 23//14 7//14
f 28//15 22//15 23//15
f 11//16 6//16 22//16
f 18//17 30//17 2//17
f 19//18 31//18 18//18
f 3//19 15//19 19//19
f 30//20 22//20 13//20
f 31//21 23//21 30//21
f 15//22 7//22 31//22
f 24//23 32//23 14//23
f 25//24 33//24 24//24
f 8//25 16//25 25//25
f 32//26 20//26 14//26
f 33//27 21//27 32//27
f 16//28 4//28 33//28
f 35//29 51//29 55//29
f 36//30 57//30 51//30
f 37//31 56//31 52//31
f 38//32 52//32 58//32
f 34//33 55//33 40//33
f 40//34 53//34 37//34
f 41//35 54//35 57//35
f 39//36 58//36 41//36
f 42//37 39//37 41//37
f 43//38 41//38 44//38
f 45//39 40//39 37//39
f 47//40 34//40 45//40
f 48//41 38//41 42//41
f 46//42 37//42 48//42
f 44//43 36//43 49//43
f 49//44 35//44 47//44
f 48//45 50//45 45//45
f 42//46 43//46 50//46
f 50//47 49//47 47//47
f 43//48 44//48 49//48
f 59//49 12//49 7//49
f 59//50 15//50 3//50
f 59//51 10//51 4//51
f 59//52 16//52 8//52
f 53//53 60//53 52//53
f 54//54 58//54 60//54
f 54//55 60//55 51//55
f 53//56 55//56 51//56
f 5//57 14//57 11//57
f 14//58 1//58 9//58
f 13//59 6//59 11//59
f 17//60 9//60 13//60
f 26//61 9//61 20//61
f 20//62 21//62 26//62
f 21//63 4//63 27//63
f 9//64 26//64 2//64
f 26//65 27//65 18//65
f 27//66 10//66 19//66
f 8//67 25//67 12//67
f 25//68 24//68 29//68
f 24//69 5//69 28//69
f 12//70 29//70 7//70
f 29//71 28//71 23//71
f 28//72 11//72 22//72
f 30//73 13//73 2//73
f 31//74 30//74 18//74
f 15//75 31//75 19//75
f 22//76 6//76 13//76
f 23//77 22//77 30//77
f 7//78 23//78 31//78
f 5//79 24//79 14//79
f 33//80 32//80 24//80
f 16//81 33//81 25//81
f 20//82 1//82 14//82
f 21//83 20//83 32//83
f 4//84 21//84 33//84
f 34//85 35//85 55//85
f 35//86 36//86 51//86
f 38//87 37//87 52//87
f 39//88 38//88 58//88
f 55//89 53//89 40//89
f 53//90 56//90 37//90
f 36//91 41//91 57//91
f 58//92 54//92 41//92
f 43//93 42//93 41//93
f 41//94 36//94 44//94
f 46//95 45//95 37//95
f 34//96 40//96 45//96
f 38//97 39//97 42//97
f 37//98 38//98 48//98
f 36//99 35//99 49//99
f 35//100 34//100 47//100
f 46//101 48//101 45//101
f 48//102 42//102 50//102
f 45//103 50//103 47//103
f 50//104 43//104 49//104
f 15//105 59//105 7//105
f 10//106 59//106 3//106
f 16//107 59//107 4//107
f 12//108 59//108 8//108
f 56//109 53//109 52//109
f 58//110 52//110 60//110
f 57//111 54//111 51//111
f 60//112 53//112 51//112
