# Blender v2.66 (sub 1) OBJ File: 'Torax.blend'
# www.blender.org
o Torax_Cube.002
v 0.000000 -0.019815 -0.147646
v 0.000000 -0.077875 -0.110558
v -0.000000 -0.022981 0.090358
v -0.000000 -0.045413 0.081726
v 0.000000 0.087391 -0.044208
v 0.000000 0.083684 -0.146897
v -0.000000 0.065703 0.034012
v -0.000000 -0.132406 0.110965
v 0.000000 -0.132929 -0.090132
v 0.000000 -0.132929 -0.009592
v 0.166662 -0.017267 -0.029494
v -0.166662 -0.017267 -0.029494
v 0.152171 -0.070975 -0.023038
v -0.152171 -0.070975 -0.023038
v 0.134601 -0.019674 -0.138203
v -0.134601 -0.019674 -0.138204
v 0.120026 -0.076155 -0.100603
v -0.120026 -0.076155 -0.100603
v 0.134601 -0.022437 0.073745
v -0.134601 -0.022437 0.073745
v 0.121020 -0.045153 0.064212
v -0.121020 -0.045153 0.064212
v 0.144725 0.080591 -0.046425
v -0.144725 0.080591 -0.046425
v 0.132356 0.068056 0.022494
v -0.132356 0.068056 0.022494
v 0.124349 0.074662 -0.145798
v -0.124349 0.074662 -0.145798
v 0.091205 -0.132929 -0.080690
v -0.091205 -0.132929 -0.080690
v 0.091205 -0.132406 0.094352
v -0.091205 -0.132406 0.094352
v 0.116688 -0.132929 -0.009592
v -0.116688 -0.132929 -0.009592
vn 0.974634 0.089399 -0.205176
vn -0.961529 0.179590 -0.207870
vn 0.934277 0.192977 0.299811
vn -0.919036 0.257643 0.298315
vn 0.009358 0.007239 -0.999930
vn -0.003006 -0.079924 -0.996796
vn 0.058396 -0.563601 -0.823981
vn -0.076187 -0.566086 -0.820818
vn 0.082112 -0.366726 -0.926698
vn -0.095576 -0.372324 -0.923169
vn 0.101479 0.533504 0.839687
vn -0.104678 0.492067 0.864241
vn 0.134597 -0.355891 0.924784
vn -0.128969 -0.448321 0.884520
vn 0.170139 0.313951 0.934070
vn -0.172625 0.268387 0.947718
vn 0.045774 0.996577 -0.068839
vn -0.072813 0.994577 -0.074264
vn -0.001952 0.983919 0.178603
vn -0.048969 0.981095 0.187228
vn 0.000001 -1.000000 0.000000
vn -0.000001 -1.000000 -0.000001
vn 0.000791 -0.999990 0.004341
vn -0.000000 -0.999991 0.004341
vn 0.903143 -0.197883 0.381018
vn -0.934941 -0.218678 0.279402
vn 0.942152 -0.241732 0.232195
vn -0.866879 -0.449874 0.214789
vn 0.892575 -0.283028 -0.351005
vn -0.843364 -0.431134 -0.320719
vn 0.802795 -0.522232 -0.287740
vn -0.808554 -0.512107 -0.289805
vn 0.945332 0.163061 -0.282417
vn -0.955514 0.081007 -0.283604
vn 0.944424 0.248878 0.214762
vn -0.970397 0.136800 0.199038
vn 0.069872 -0.072506 -0.994918
vn -0.069970 0.007222 -0.997523
vn 0.077375 -0.536717 -0.840207
vn -0.059578 -0.537375 -0.841236
vn 0.096612 -0.346215 -0.933167
vn -0.082460 -0.346658 -0.934360
vn 0.066726 0.492964 0.867487
vn -0.063786 0.535181 0.842326
vn 0.111717 -0.440609 0.890721
vn -0.115855 -0.356741 0.926992
vn 0.136848 0.281332 0.949802
vn -0.135238 0.315670 0.939182
vn 0.072630 0.996710 -0.035984
vn -0.046356 0.998275 -0.036040
vn 0.049314 0.962470 0.266871
vn -0.006119 0.963624 0.267191
vn -0.000000 -1.000000 -0.000001
vn 0.000000 -1.000000 0.000000
vn 0.000000 -0.999987 0.005034
vn -0.000960 -0.999986 0.005270
vn 0.794504 -0.566639 0.218365
vn -0.689968 -0.589048 0.420674
vn 0.827226 -0.384954 0.409277
vn -0.908328 -0.179959 0.377564
vn 0.883281 -0.395521 -0.251749
vn -0.922237 -0.280786 -0.265779
vn 0.804424 -0.513269 -0.299094
vn -0.799573 -0.522284 -0.296483
s off
f 27//1 23//1 15//1
f 12//2 24//2 28//2
f 25//3 19//3 11//3
f 12//4 20//4 24//4
f 1//5 6//5 27//5
f 28//6 6//6 16//6
f 15//7 17//7 1//7
f 2//8 18//8 16//8
f 17//9 29//9 2//9
f 9//10 30//10 18//10
f 7//11 3//11 19//11
f 20//12 3//12 26//12
f 3//13 4//13 21//13
f 22//14 4//14 20//14
f 4//15 8//15 31//15
f 32//16 8//16 22//16
f 23//17 27//17 5//17
f 6//18 28//18 24//18
f 25//19 23//19 7//19
f 5//20 24//20 26//20
f 10//21 9//21 29//21
f 30//22 9//22 34//22
f 8//23 10//23 31//23
f 34//24 10//24 8//24
f 21//25 13//25 11//25
f 12//26 14//26 20//26
f 31//27 33//27 21//27
f 14//28 34//28 32//28
f 13//29 17//29 11//29
f 16//30 18//30 14//30
f 33//31 29//31 13//31
f 18//32 30//32 34//32
f 23//33 11//33 15//33
f 16//34 12//34 28//34
f 23//35 25//35 11//35
f 20//36 26//36 24//36
f 15//37 1//37 27//37
f 6//38 1//38 16//38
f 17//39 2//39 1//39
f 1//40 2//40 16//40
f 29//41 9//41 2//41
f 2//42 9//42 18//42
f 25//43 7//43 19//43
f 3//44 7//44 26//44
f 19//45 3//45 21//45
f 4//46 3//46 20//46
f 21//47 4//47 31//47
f 8//48 4//48 22//48
f 27//49 6//49 5//49
f 5//50 6//50 24//50
f 23//51 5//51 7//51
f 7//52 5//52 26//52
f 33//53 10//53 29//53
f 9//54 10//54 34//54
f 10//55 33//55 31//55
f 32//56 34//56 8//56
f 19//57 21//57 11//57
f 14//58 22//58 20//58
f 33//59 13//59 21//59
f 22//60 14//60 32//60
f 17//61 15//61 11//61
f 12//62 16//62 14//62
f 29//63 17//63 13//63
f 14//64 18//64 34//64
