# Blender v2.65 (sub 0) OBJ File: 'cube.blend'
# www.blender.org
mtllib cube.mtl
v 1.000000 -1.000000 -1.000000
v 1.000000 -1.000000 1.000000
v -1.000000 -1.000000 1.000000
v -1.000000 -1.000000 -1.000000
v 0.787378 0.770792 -0.645426
v 0.771342 0.753525 0.582016
v -0.762703 0.744222 0.575468
v -0.778146 0.760841 -0.637859
v 1.000000 -1.000000 0.000000
v 0.000000 -1.000000 -1.000000
v 1.000000 0.000000 -1.000000
v 0.000000 -1.000000 1.000000
v 0.999832 -0.000013 0.999833
v -1.000000 -1.000000 -0.000000
v -1.000000 0.000000 1.000000
v -0.999902 -0.000008 -0.999902
v 0.776372 0.758939 0.000007
v 0.000000 0.759296 -0.776713
v -0.000008 0.734172 0.753413
v -0.764016 0.745616 -0.000002
v 0.000000 -1.000000 -0.000000
v -0.000015 0.813014 0.000005
v 1.000000 0.000000 0.000000
v -0.000000 0.000000 1.000000
v -1.000000 0.000000 -0.000000
v 0.000000 0.000000 -1.000000
vt 0.500258 0.501249
vt 0.666498 0.500739
vt 0.667008 0.666979
vt 0.833252 0.167872
vt 0.833762 0.001632
vt 0.959191 0.002016
vt 0.166241 0.502074
vt 0.165731 0.668315
vt 0.040302 0.667930
vt 0.166757 0.168859
vt 0.166248 0.002905
vt 0.332998 0.168349
vt 0.833759 0.501249
vt 0.834269 0.667489
vt 0.697999 0.667907
vt 0.500261 0.167908
vt 0.500771 0.333988
vt 0.334530 0.334498
vt 0.334017 0.501759
vt 0.500768 0.667489
vt 0.333507 0.335518
vt 0.499748 0.335008
vt 0.665989 0.334498
vt 0.832742 0.334113
vt 0.958171 0.334498
vt 0.696472 0.333695
vt 0.667012 0.167362
vt 0.697492 0.001214
vt 0.166751 0.335834
vt 0.000000 0.501564
vt 0.332992 0.336344
vt 0.332481 0.502584
vt 0.302001 0.668733
vt 0.167266 0.334814
vt 0.001025 0.335324
vt 0.000516 0.169370
vt 0.000000 0.001020
vt 0.833249 0.335008
vt 0.667519 0.501759
vt 0.999490 0.334498
vt 1.000000 0.500739
vt 0.959698 0.667105
vt 0.499752 0.001828
vt 0.334021 0.168418
vt 0.665989 0.000000
vt 0.666502 0.167398
vt 0.667012 0.333478
vt 0.999493 0.168382
vt 0.332481 0.000000
vt 0.334527 0.667999
vt 0.000510 0.335324
vt 0.333507 0.334304
vt 0.667008 0.335518
vt 0.333507 0.001020
vn 0.000000 -1.000000 0.000000
vn -0.087875 0.996128 0.002614
vn 0.959168 0.282628 0.010918
vn -0.000000 0.318392 0.947959
vn -0.953007 0.301623 0.028311
vn 0.000000 0.000000 -1.000000
vn 0.069478 0.997535 0.009879
vn -0.003062 0.997612 -0.068995
vn -0.010331 0.997564 -0.068992
vn 1.000000 0.000000 0.000168
vn 1.000000 -0.000000 0.000000
vn 0.963996 0.265917 0.000000
vn -0.000000 -0.000000 1.000000
vn 0.000167 0.000167 1.000000
vn 0.173255 0.517247 0.838116
vn -1.000000 -0.000000 -0.000098
vn -1.000000 -0.000000 -0.000000
vn -0.952741 0.303784 -0.000000
vn -0.000096 0.282125 -0.959378
vn 0.140907 0.445562 -0.884093
vn -0.011177 0.994507 0.104072
vn 0.956948 0.290260 0.000165
vn -0.185903 0.530906 0.826788
vn -0.960041 0.279858 -0.000097
vn -0.000098 0.000098 -1.000000
vn -0.001827 0.994567 0.104078
vn 0.069468 0.997394 0.019502
vn -0.087847 0.995802 0.025714
vn 1.000000 0.000168 -0.000000
vn 0.959002 0.282579 0.021543
vn 0.000163 0.318392 0.947959
vn -1.000000 0.000098 -0.000000
vn -0.953385 0.301742 0.002905
vn -0.155004 0.460958 -0.873780
vn 0.000000 0.282125 -0.959377
usemtl Material
s off
f 21/1/1 12/2/1 3/3/1
f 22/4/2 20/5/2 7/6/2
f 23/7/3 17/8/3 6/9/3
f 24/10/4 19/11/4 15/12/4
f 25/13/5 20/14/5 8/15/5
f 26/16/6 10/17/6 4/18/6
f 10/19/1 21/1/1 14/20/1
f 1/21/1 9/22/1 21/1/1
f 9/22/1 2/23/1 12/2/1
f 17/24/7 22/4/7 6/25/7
f 5/26/8 18/27/8 22/4/8
f 18/27/9 8/28/9 22/4/9
f 9/29/10 23/7/10 13/30/10
f 1/31/11 11/32/11 23/7/11
f 11/32/12 5/33/12 23/7/12
f 12/34/13 24/10/13 15/12/13
f 2/35/14 13/36/14 24/10/14
f 13/36/15 6/37/15 19/11/15
f 14/38/16 25/13/16 16/39/16
f 3/40/17 15/41/17 25/13/17
f 15/41/18 7/42/18 25/13/18
f 18/43/19 26/16/19 16/44/19
f 5/45/20 11/46/20 18/43/20
f 11/46/6 1/47/6 10/17/6
f 14/20/1 21/1/1 3/3/1
f 19/48/21 22/4/21 7/6/21
f 13/30/22 23/7/22 6/9/22
f 19/11/23 7/49/23 15/12/23
f 16/39/24 25/13/24 8/15/24
f 16/44/25 26/16/25 4/18/25
f 4/50/1 10/19/1 14/20/1
f 10/19/1 1/21/1 21/1/1
f 21/1/1 9/22/1 12/2/1
f 22/4/26 19/48/26 6/25/26
f 17/24/27 5/26/27 22/4/27
f 8/28/28 20/5/28 22/4/28
f 2/51/29 9/29/29 13/30/29
f 9/29/11 1/31/11 23/7/11
f 5/33/30 17/8/30 23/7/30
f 3/52/13 12/34/13 15/12/13
f 12/34/13 2/35/13 24/10/13
f 24/10/31 13/36/31 19/11/31
f 4/53/32 14/38/32 16/39/32
f 14/38/17 3/40/17 25/13/17
f 7/42/33 20/14/33 25/13/33
f 8/54/34 18/43/34 16/44/34
f 11/46/35 26/16/35 18/43/35
f 26/16/6 11/46/6 10/17/6

